<svg width="34" height="34" viewBox="0 0 34 34" fill="none" xmlns="http://www.w3.org/2000/svg">
<g clip-path="url(#clip0_211_2046)">
<path fill-rule="evenodd" clip-rule="evenodd" d="M9.97901 3.1499C13.8233 3.1499 16.9397 6.26631 16.9397 10.1106V3.1499H23.9004C27.7446 3.1499 30.8611 6.26631 30.8611 10.1106C30.8611 13.9548 27.7446 17.0713 23.9004 17.0713C27.7446 17.0713 30.8611 20.1877 30.8611 24.032C30.8611 25.9408 30.0927 27.6702 28.8484 28.9277L28.8224 28.954L28.7993 28.9769C27.5415 30.223 25.8108 30.9927 23.9004 30.9927C22.003 30.9927 20.2829 30.2335 19.0272 29.0023C19.0109 28.9863 18.9946 28.9701 18.9784 28.954C18.9632 28.9387 18.948 28.9234 18.9329 28.908C17.7001 27.6522 16.9397 25.9309 16.9397 24.032C16.9397 27.8762 13.8233 30.9927 9.97901 30.9927C6.13472 30.9927 3.01831 27.8762 3.01831 24.032V17.0713H9.97901C6.13472 17.0713 3.01831 13.9548 3.01831 10.1106C3.01831 6.26631 6.13472 3.1499 9.97901 3.1499ZM15.5476 10.1106C15.5476 13.186 13.0544 15.6792 9.97901 15.6792V4.54204C13.0544 4.54204 15.5476 7.03517 15.5476 10.1106ZM29.469 24.032C29.469 20.9565 26.9758 18.4634 23.9004 18.4634C20.825 18.4634 18.3318 20.9565 18.3318 24.032H29.469ZM4.41045 18.4634V24.032C4.41045 27.1074 6.90358 29.6005 9.97901 29.6005C13.0544 29.6005 15.5476 27.1074 15.5476 24.032V18.4634H4.41045ZM18.3318 15.6792V4.54204H23.9004C26.9758 4.54204 29.469 7.03517 29.469 10.1106C29.469 13.186 26.9758 15.6792 23.9004 15.6792H18.3318Z" fill="#263238"/>
</g>
<defs>
<clipPath id="clip0_211_2046">
<rect width="27.8428" height="27.8428" fill="white" transform="translate(3.01831 3.1499)"/>
</clipPath>
</defs>
</svg>
