<svg width="39" height="34" viewBox="0 0 39 34" fill="none" xmlns="http://www.w3.org/2000/svg">
<g clip-path="url(#clip0_211_2052)">
<path d="M38.5803 13.9504C38.5843 13.9214 38.5843 13.8921 38.5803 13.863C38.5841 13.8394 38.5841 13.8153 38.5803 13.7916L38.2967 11.7502C38.2558 11.506 38.1463 11.2778 37.9807 11.091L37.9321 11.0354L37.843 10.948L32.9332 6.80182L33.0709 6.93686C32.9582 6.80469 32.8168 6.69897 32.657 6.62749C32.4971 6.55601 32.323 6.52058 32.1473 6.52383H30.6565C30.4141 6.51912 30.1772 6.59468 29.9841 6.73829C29.7812 6.59554 29.537 6.52037 29.2873 6.52383H27.7965C27.601 6.52072 27.4082 6.56829 27.2374 6.66174C27.0667 6.75519 26.9242 6.8912 26.8243 7.056C26.6703 7.29138 26.6125 7.57497 26.6623 7.85029L26.8486 9.13703C26.7252 9.06843 26.5854 9.03283 26.4435 9.03379H19.2247C18.9657 9.03538 18.7126 9.1098 18.4955 9.24824C18.2855 9.37709 18.1169 9.56159 18.0094 9.78041L17.4503 9.31178C17.2303 9.1122 16.9399 9.00402 16.6401 9.00996H5.3136C5.05368 9.0146 4.79953 9.08578 4.57634 9.21647C4.271 9.39168 4.04722 9.67657 3.95248 10.0108L0.355205 21.806C0.287991 22.0003 0.28138 22.2099 0.336216 22.408C0.391053 22.606 0.504855 22.7836 0.663083 22.918C0.704313 22.9522 0.747604 22.9841 0.792718 23.0133C0.792718 23.0133 0.719788 22.9656 0.679278 22.9259L5.58909 27.08C5.79678 27.2675 6.06833 27.3723 6.35062 27.3739H17.7663C18.027 27.3673 18.2813 27.2933 18.5036 27.1595C18.6293 27.0921 18.7418 27.0034 18.8358 26.8973L18.8763 26.8417L18.9411 26.7623L18.9897 26.6749L19.5245 27.1277C19.7292 27.3077 19.9948 27.4067 20.2698 27.4057H31.7098C31.9702 27.3972 32.2241 27.3234 32.4471 27.1912C32.5699 27.1198 32.6818 27.0315 32.7793 26.9291L32.8197 26.8735L32.8846 26.7941C32.919 26.7438 32.9489 26.6907 32.9737 26.6352C33.0001 26.5871 33.0218 26.5365 33.0385 26.4843L36.3198 15.7138V15.6184C36.3238 15.5815 36.3238 15.5442 36.3198 15.5072V15.4358C36.3237 15.4121 36.3237 15.388 36.3198 15.3643C36.3235 15.314 36.3235 15.2636 36.3198 15.2133H37.3731C37.4647 15.2216 37.5569 15.2216 37.6485 15.2133H37.7215C37.7807 15.196 37.8378 15.172 37.8916 15.1419H37.9726L38.1184 15.0307L38.1833 14.983L38.2967 14.84V14.7924L38.3777 14.6573C38.3732 14.6311 38.3732 14.6042 38.3777 14.5779C38.3734 14.5651 38.3734 14.5511 38.3777 14.5382C38.3949 14.4917 38.4085 14.4438 38.4182 14.3952C38.4144 14.3796 38.4144 14.3632 38.4182 14.3476C38.4143 14.3239 38.4143 14.2997 38.4182 14.2761C38.4182 14.2761 38.5803 13.9663 38.5803 13.9504Z" fill="black"/>
<path d="M16.9723 9.91548C17.0154 9.95361 17.0454 10.0037 17.0584 10.0591C17.0715 10.1145 17.0669 10.1725 17.0453 10.2252L13.4561 22.0125C13.4109 22.1412 13.3185 22.2488 13.1969 22.3144C13.0979 22.3792 12.9834 22.4176 12.8646 22.4256H1.45711C1.35969 22.421 1.26739 22.3814 1.19784 22.3144C1.15647 22.2768 1.12743 22.2281 1.11444 22.1743C1.10145 22.1206 1.10511 22.0642 1.12493 22.0125L4.7222 10.2252C4.76365 10.0949 4.8532 9.98447 4.97336 9.91548C5.07394 9.85524 5.18793 9.81981 5.30554 9.81222H16.7131C16.8097 9.81313 16.9024 9.85005 16.9723 9.91548ZM11.0174 19.6376L13.1644 12.6002H7.1528L5.01386 19.6376H11.0174ZM27.8614 10.0346C27.9003 10.079 27.9489 10.1141 28.0037 10.1375C28.0584 10.1609 28.1177 10.1719 28.1774 10.1696H29.66C29.7165 10.1702 29.7721 10.1566 29.8218 10.1302C29.8714 10.1038 29.9133 10.0654 29.9436 10.0187C29.9699 9.98225 29.9885 9.94095 29.9982 9.89728C30.008 9.85363 30.0087 9.80849 30.0003 9.76456L29.7086 7.66764C29.6809 7.57059 29.631 7.48097 29.5628 7.40552C29.5238 7.36118 29.4752 7.32601 29.4205 7.30263C29.3658 7.27926 29.3064 7.26827 29.2468 7.27049H27.7642C27.7077 7.26995 27.652 7.28353 27.6024 7.30993C27.5528 7.33634 27.5109 7.3747 27.4806 7.42141C27.4239 7.53261 27.3996 7.60409 27.4239 7.66764L27.7237 9.76456C27.739 9.86667 27.7873 9.96128 27.8614 10.0346ZM32.5686 7.65175C32.5408 7.5547 32.4909 7.46508 32.4228 7.38963C32.3855 7.34545 32.3383 7.3103 32.2849 7.28688C32.2315 7.26346 32.1734 7.25242 32.1149 7.25461H30.6241C30.5686 7.25305 30.5137 7.26626 30.4652 7.29283C30.4167 7.3194 30.3765 7.35834 30.3487 7.40552C30.2948 7.47599 30.2714 7.5645 30.2839 7.65175L30.5836 9.74867C30.6024 9.8497 30.6502 9.94338 30.7214 10.0187C30.761 10.0622 30.8098 10.0968 30.8643 10.1201C30.9189 10.1434 30.9778 10.1549 31.0373 10.1538H32.5281C32.5835 10.1545 32.6381 10.1409 32.6864 10.1144C32.7348 10.0879 32.7752 10.0495 32.8036 10.0028C32.8318 9.96731 32.8515 9.92603 32.8613 9.88205C32.8711 9.83807 32.8708 9.7925 32.8603 9.74867L32.5686 7.65175ZM26.557 10.8289L26.4111 9.79633H19.2247C19.1119 9.80243 19.0027 9.83809 18.9087 9.89959C18.849 9.93149 18.7971 9.97571 18.7565 10.0292C18.716 10.0827 18.6878 10.1441 18.6738 10.2094L18.0742 12.1792C18.0503 12.2284 18.0421 12.2836 18.0508 12.3375C18.0595 12.3914 18.0846 12.4414 18.1228 12.481C18.1911 12.544 18.2803 12.5807 18.374 12.5843H27.1079L24.9609 19.6217H16.2513C16.139 19.6242 16.0296 19.6572 15.9353 19.717C15.8207 19.7884 15.737 19.8987 15.7004 20.0268L15.0927 21.9966C15.0729 22.0472 15.0677 22.1021 15.0777 22.1553C15.0877 22.2086 15.1125 22.2581 15.1494 22.2984C15.2156 22.3656 15.3054 22.4054 15.4006 22.4096H26.8405C26.9588 22.3997 27.0729 22.3615 27.1727 22.2984C27.2923 22.2326 27.3821 22.1247 27.4239 21.9966L30.7132 11.2261H27.0107C26.9519 11.2272 26.8936 11.2165 26.8392 11.1946C26.7849 11.1728 26.7357 11.1402 26.6947 11.099C26.6277 11.0269 26.5804 10.9395 26.557 10.8448V10.8289Z" fill="white"/>
</g>
<defs>
<clipPath id="clip0_211_2052">
<rect width="38.2838" height="20.8821" fill="white" transform="translate(0.299438 6.52362)"/>
</clipPath>
</defs>
</svg>
